<svg xmlns="http://www.w3.org/2000/svg" width="434.0" height="284" viewBox="0 0 434.0 284"><rect width="434.0" height="284" fill="#ffffff"/><rect x="3" y="9" width="434.0" height="268" rx="16" fill="#D0D7DE"/><rect x="0" y="2" width="434.0" height="268" rx="16" fill="#FFFBFE" stroke="#CAC4D0" stroke-width="1"/><rect x="0" y="2" width="6" height="268" rx="3" fill="#1565C0"/><text x="28" y="38" fill="#1565C0" font-family="Segoe UI, Helvetica, Arial, sans-serif" font-size="11" font-weight="600" letter-spacing="1.8">FEATURED PROJECT</text><text x="28" y="70" fill="#1C1B1F" font-family="Segoe UI, Helvetica, Arial, sans-serif" font-size="22" font-weight="700">AI Development Agent</text><text x="28" y="102" fill="#49454F" font-family="Segoe UI, Helvetica, Arial, sans-serif" font-size="13">AI-powered software development workflow that</text><text x="28" y="122" fill="#49454F" font-family="Segoe UI, Helvetica, Arial, sans-serif" font-size="13">takes work from the backlog to a reviewed merge</text><text x="28" y="142" fill="#49454F" font-family="Segoe UI, Helvetica, Arial, sans-serif" font-size="13">request.</text><text x="28" y="162" fill="#49454F" font-family="Segoe UI, Helvetica, Arial, sans-serif" font-size="13"></text><text x="28" y="182" fill="#49454F" font-family="Segoe UI, Helvetica, Arial, sans-serif" font-size="13">GitLab   →   Jira   →   Agent   →   Dev   →   MR</text><rect x="28" y="222" width="55.2" height="28" rx="14" fill="#E7E0EC"/><text x="55.6" y="240" text-anchor="middle" fill="#1C1B1F" font-family="Segoe UI, Helvetica, Arial, sans-serif" font-size="11" font-weight="600">GitLab</text><rect x="91.2" y="222" width="40.8" height="28" rx="14" fill="#E7E0EC"/><text x="111.6" y="240" text-anchor="middle" fill="#1C1B1F" font-family="Segoe UI, Helvetica, Arial, sans-serif" font-size="11" font-weight="600">Jira</text><rect x="140.0" y="222" width="48.0" height="28" rx="14" fill="#E7E0EC"/><text x="164.0" y="240" text-anchor="middle" fill="#1C1B1F" font-family="Segoe UI, Helvetica, Arial, sans-serif" font-size="11" font-weight="600">Tests</text><rect x="196.0" y="222" width="91.2" height="28" rx="14" fill="#E7E0EC"/><text x="241.6" y="240" text-anchor="middle" fill="#1C1B1F" font-family="Segoe UI, Helvetica, Arial, sans-serif" font-size="11" font-weight="600">Code Review</text></svg>